<svg width="512" height="512" viewBox="0 0 512 512" fill="none" xmlns="http://www.w3.org/2000/svg">
  <defs>
    <linearGradient id="bg" x1="64" y1="48" x2="448" y2="464" gradientUnits="userSpaceOnUse">
      <stop stop-color="#FFE5B8"/>
      <stop offset="0.5" stop-color="#F29B4B"/>
      <stop offset="1" stop-color="#A53A11"/>
    </linearGradient>
    <linearGradient id="doc" x1="168" y1="120" x2="364" y2="384" gradientUnits="userSpaceOnUse">
      <stop stop-color="#FFFDF8"/>
      <stop offset="1" stop-color="#F5E9D7"/>
    </linearGradient>
    <linearGradient id="lens" x1="240" y1="192" x2="380" y2="332" gradientUnits="userSpaceOnUse">
      <stop stop-color="#1F2D3D"/>
      <stop offset="1" stop-color="#35556F"/>
    </linearGradient>
    <filter id="shadow" x="71" y="79" width="370" height="370" filterUnits="userSpaceOnUse" color-interpolation-filters="sRGB">
      <feFlood flood-opacity="0" result="BackgroundImageFix"/>
      <feColorMatrix in="SourceAlpha" type="matrix" values="0 0 0 0 0 0 0 0 0 0 0 0 0 0 0 0 0 0 127 0" result="hardAlpha"/>
      <feOffset dy="14"/>
      <feGaussianBlur stdDeviation="18"/>
      <feComposite in2="hardAlpha" operator="out"/>
      <feColorMatrix type="matrix" values="0 0 0 0 0.278431 0 0 0 0 0.117647 0 0 0 0 0.0313726 0 0 0 0.18 0"/>
      <feBlend mode="normal" in2="BackgroundImageFix" result="effect1_dropShadow_0_1"/>
      <feBlend mode="normal" in="SourceGraphic" in2="effect1_dropShadow_0_1" result="shape"/>
    </filter>
  </defs>

  <rect width="512" height="512" rx="126" fill="url(#bg)"/>
  <circle cx="104" cy="112" r="54" fill="#FFF4DF" fill-opacity="0.55"/>
  <circle cx="420" cy="408" r="70" fill="#6D220A" fill-opacity="0.12"/>

  <g filter="url(#shadow)">
    <path d="M166 110C166 95.6406 177.641 84 192 84H298L366 152V330C366 344.359 354.359 356 340 356H192C177.641 356 166 344.359 166 330V110Z" fill="url(#doc)"/>
    <path d="M298 84L366 152H318C306.954 152 298 143.046 298 132V84Z" fill="#F0D0AA"/>
    <rect x="198" y="176" width="112" height="18" rx="9" fill="#D7B791"/>
    <rect x="198" y="212" width="136" height="18" rx="9" fill="#E0C2A0"/>
    <rect x="198" y="248" width="122" height="18" rx="9" fill="#E0C2A0"/>
    <rect x="198" y="284" width="84" height="18" rx="9" fill="#E0C2A0"/>

    <circle cx="304" cy="282" r="70" fill="url(#lens)"/>
    <circle cx="304" cy="282" r="45" fill="#FFF6E8"/>
    <path d="M349.221 328.765L404.375 383.919" stroke="#1F2D3D" stroke-width="26" stroke-linecap="round"/>
    <path d="M292.5 253L304 286L337 297.5L304 309L292.5 342L281 309L248 297.5L281 286L292.5 253Z" fill="#E7642D"/>
    <circle cx="325" cy="254" r="11" fill="#FFF0D8" fill-opacity="0.75"/>
  </g>
</svg>
